<mxfile host="app.diagrams.net" modified="2023-11-16T09:34:20.921Z" agent="Mozilla/5.0 (Windows NT 10.0; Win64; x64) AppleWebKit/537.36 (KHTML, like Gecko) Chrome/119.0.0.0 Safari/537.36 Edg/119.0.0.0" etag="WgJmVYsd_ogL1WXzqt3L" version="22.1.2" type="github">
  <diagram name="Side-1" id="C1oGiQ3anEXHUjQ1uSzQ">
    <mxGraphModel dx="1426" dy="793" grid="1" gridSize="10" guides="1" tooltips="1" connect="1" arrows="1" fold="1" page="1" pageScale="1" pageWidth="827" pageHeight="1169" math="0" shadow="0">
      <root>
        <mxCell id="0" />
        <mxCell id="1" parent="0" />
        <mxCell id="nResc2J95Kc2uAZXSNH7-85" value="" style="rounded=0;whiteSpace=wrap;html=1;" parent="1" vertex="1">
          <mxGeometry x="630" y="435" width="162" height="35" as="geometry" />
        </mxCell>
        <mxCell id="nResc2J95Kc2uAZXSNH7-19" style="edgeStyle=orthogonalEdgeStyle;rounded=1;orthogonalLoop=1;jettySize=auto;html=1;exitX=0.5;exitY=1;exitDx=0;exitDy=0;dashed=1;dashPattern=8 8;" parent="1" source="nResc2J95Kc2uAZXSNH7-1" edge="1">
          <mxGeometry relative="1" as="geometry">
            <mxPoint x="190" y="210" as="targetPoint" />
          </mxGeometry>
        </mxCell>
        <mxCell id="nResc2J95Kc2uAZXSNH7-20" style="edgeStyle=orthogonalEdgeStyle;rounded=1;orthogonalLoop=1;jettySize=auto;html=1;exitX=0.5;exitY=1;exitDx=0;exitDy=0;dashed=1;dashPattern=8 8;" parent="1" edge="1">
          <mxGeometry relative="1" as="geometry">
            <mxPoint x="760" y="210" as="targetPoint" />
            <mxPoint x="475" y="135" as="sourcePoint" />
            <Array as="points">
              <mxPoint x="475" y="175" />
              <mxPoint x="760" y="175" />
            </Array>
          </mxGeometry>
        </mxCell>
        <mxCell id="nResc2J95Kc2uAZXSNH7-1" value="&lt;font face=&quot;Times New Roman&quot;&gt;&lt;b&gt;Time in bed&amp;nbsp;&lt;/b&gt;&lt;/font&gt;" style="rounded=0;whiteSpace=wrap;html=1;" parent="1" vertex="1">
          <mxGeometry x="415" y="100" width="120" height="40" as="geometry" />
        </mxCell>
        <mxCell id="nResc2J95Kc2uAZXSNH7-3" value="" style="line;strokeWidth=2;html=1;perimeter=backbonePerimeter;points=[];outlineConnect=0;" parent="1" vertex="1">
          <mxGeometry x="185" y="240" width="580" height="10" as="geometry" />
        </mxCell>
        <mxCell id="nResc2J95Kc2uAZXSNH7-8" value="" style="endArrow=none;html=1;rounded=0;strokeWidth=2;" parent="1" edge="1">
          <mxGeometry width="50" height="50" relative="1" as="geometry">
            <mxPoint x="185" y="279" as="sourcePoint" />
            <mxPoint x="185" y="244" as="targetPoint" />
          </mxGeometry>
        </mxCell>
        <mxCell id="nResc2J95Kc2uAZXSNH7-10" value="" style="endArrow=none;html=1;rounded=0;strokeWidth=2;" parent="1" edge="1">
          <mxGeometry width="50" height="50" relative="1" as="geometry">
            <mxPoint x="267" y="280" as="sourcePoint" />
            <mxPoint x="267" y="245" as="targetPoint" />
          </mxGeometry>
        </mxCell>
        <mxCell id="nResc2J95Kc2uAZXSNH7-15" value="" style="swimlane;startSize=0;" parent="1" vertex="1">
          <mxGeometry x="160" y="280" width="55" height="30" as="geometry" />
        </mxCell>
        <mxCell id="nResc2J95Kc2uAZXSNH7-16" value="&lt;font face=&quot;Times New Roman&quot;&gt;In bed&lt;/font&gt;" style="text;html=1;align=center;verticalAlign=middle;resizable=0;points=[];autosize=1;strokeColor=none;fillColor=none;" parent="nResc2J95Kc2uAZXSNH7-15" vertex="1">
          <mxGeometry x="2.5" width="50" height="30" as="geometry" />
        </mxCell>
        <mxCell id="nResc2J95Kc2uAZXSNH7-13" value="" style="swimlane;startSize=0;" parent="1" vertex="1">
          <mxGeometry x="230" y="280" width="75" height="30" as="geometry" />
        </mxCell>
        <mxCell id="nResc2J95Kc2uAZXSNH7-14" value="&lt;font face=&quot;Times New Roman&quot;&gt;Sleep Onset&lt;/font&gt;" style="text;html=1;align=center;verticalAlign=middle;resizable=0;points=[];autosize=1;strokeColor=none;fillColor=none;" parent="nResc2J95Kc2uAZXSNH7-13" vertex="1">
          <mxGeometry x="-5" width="80" height="30" as="geometry" />
        </mxCell>
        <mxCell id="nResc2J95Kc2uAZXSNH7-22" value="&lt;font face=&quot;Times New Roman&quot;&gt;21.00&lt;/font&gt;" style="text;html=1;align=center;verticalAlign=middle;resizable=0;points=[];autosize=1;strokeColor=none;fillColor=none;" parent="1" vertex="1">
          <mxGeometry x="160" y="210" width="50" height="30" as="geometry" />
        </mxCell>
        <mxCell id="nResc2J95Kc2uAZXSNH7-23" value="&lt;font face=&quot;Times New Roman&quot;&gt;21.37&lt;/font&gt;" style="text;html=1;align=center;verticalAlign=middle;resizable=0;points=[];autosize=1;strokeColor=none;fillColor=none;" parent="1" vertex="1">
          <mxGeometry x="240" y="210" width="50" height="30" as="geometry" />
        </mxCell>
        <mxCell id="nResc2J95Kc2uAZXSNH7-24" value="&lt;font face=&quot;Times New Roman&quot;&gt;06.58&lt;/font&gt;" style="text;html=1;align=center;verticalAlign=middle;resizable=0;points=[];autosize=1;strokeColor=none;fillColor=none;" parent="1" vertex="1">
          <mxGeometry x="740" y="210" width="50" height="30" as="geometry" />
        </mxCell>
        <mxCell id="nResc2J95Kc2uAZXSNH7-25" value="" style="endArrow=none;html=1;rounded=0;strokeWidth=2;" parent="1" edge="1">
          <mxGeometry width="50" height="50" relative="1" as="geometry">
            <mxPoint x="765" y="279" as="sourcePoint" />
            <mxPoint x="765" y="244" as="targetPoint" />
          </mxGeometry>
        </mxCell>
        <mxCell id="nResc2J95Kc2uAZXSNH7-26" value="" style="swimlane;startSize=0;" parent="1" vertex="1">
          <mxGeometry x="737" y="280" width="57.5" height="30" as="geometry" />
        </mxCell>
        <mxCell id="nResc2J95Kc2uAZXSNH7-27" value="&lt;font face=&quot;Times New Roman&quot;&gt;Out Bed&lt;/font&gt;" style="text;html=1;align=center;verticalAlign=middle;resizable=0;points=[];autosize=1;strokeColor=none;fillColor=none;" parent="nResc2J95Kc2uAZXSNH7-26" vertex="1">
          <mxGeometry x="-2.5" width="60" height="30" as="geometry" />
        </mxCell>
        <mxCell id="nResc2J95Kc2uAZXSNH7-31" value="" style="shape=link;html=1;rounded=0;strokeWidth=3;" parent="1" edge="1">
          <mxGeometry width="100" relative="1" as="geometry">
            <mxPoint x="407" y="244.68" as="sourcePoint" />
            <mxPoint x="463" y="245" as="targetPoint" />
          </mxGeometry>
        </mxCell>
        <mxCell id="nResc2J95Kc2uAZXSNH7-47" value="" style="shape=link;html=1;rounded=0;strokeWidth=3;" parent="1" edge="1">
          <mxGeometry width="100" relative="1" as="geometry">
            <mxPoint x="528" y="245" as="sourcePoint" />
            <mxPoint x="548" y="245" as="targetPoint" />
          </mxGeometry>
        </mxCell>
        <mxCell id="nResc2J95Kc2uAZXSNH7-48" value="&lt;font face=&quot;Times New Roman&quot;&gt;03.13 - 03.21&lt;/font&gt;" style="text;html=1;align=center;verticalAlign=middle;resizable=0;points=[];autosize=1;strokeColor=none;fillColor=none;" parent="1" vertex="1">
          <mxGeometry x="390" y="210" width="90" height="30" as="geometry" />
        </mxCell>
        <mxCell id="nResc2J95Kc2uAZXSNH7-49" value="&lt;font face=&quot;Times New Roman&quot;&gt;03.48 - 03.51&lt;/font&gt;" style="text;html=1;align=center;verticalAlign=middle;resizable=0;points=[];autosize=1;strokeColor=none;fillColor=none;" parent="1" vertex="1">
          <mxGeometry x="490" y="210" width="90" height="30" as="geometry" />
        </mxCell>
        <mxCell id="nResc2J95Kc2uAZXSNH7-56" value="" style="endArrow=none;html=1;rounded=0;strokeWidth=2;" parent="1" edge="1">
          <mxGeometry width="50" height="50" relative="1" as="geometry">
            <mxPoint x="435" y="279" as="sourcePoint" />
            <mxPoint x="435" y="244" as="targetPoint" />
          </mxGeometry>
        </mxCell>
        <mxCell id="nResc2J95Kc2uAZXSNH7-57" value="" style="swimlane;startSize=0;" parent="1" vertex="1">
          <mxGeometry x="400" y="280" width="80" height="30" as="geometry" />
        </mxCell>
        <mxCell id="nResc2J95Kc2uAZXSNH7-58" value="&lt;font face=&quot;Times New Roman&quot;&gt;Awakening&lt;/font&gt;" style="text;html=1;align=center;verticalAlign=middle;resizable=0;points=[];autosize=1;strokeColor=none;fillColor=none;" parent="nResc2J95Kc2uAZXSNH7-57" vertex="1">
          <mxGeometry width="80" height="30" as="geometry" />
        </mxCell>
        <mxCell id="nResc2J95Kc2uAZXSNH7-69" value="" style="endArrow=none;html=1;rounded=0;strokeWidth=2;" parent="1" edge="1">
          <mxGeometry width="50" height="50" relative="1" as="geometry">
            <mxPoint x="539" y="279" as="sourcePoint" />
            <mxPoint x="539" y="244" as="targetPoint" />
          </mxGeometry>
        </mxCell>
        <mxCell id="nResc2J95Kc2uAZXSNH7-70" value="" style="swimlane;startSize=0;" parent="1" vertex="1">
          <mxGeometry x="504" y="280" width="80" height="30" as="geometry" />
        </mxCell>
        <mxCell id="nResc2J95Kc2uAZXSNH7-71" value="&lt;font face=&quot;Times New Roman&quot;&gt;Awakening&lt;/font&gt;" style="text;html=1;align=center;verticalAlign=middle;resizable=0;points=[];autosize=1;strokeColor=none;fillColor=none;" parent="nResc2J95Kc2uAZXSNH7-70" vertex="1">
          <mxGeometry width="80" height="30" as="geometry" />
        </mxCell>
        <mxCell id="nResc2J95Kc2uAZXSNH7-72" value="&lt;font face=&quot;Times New Roman&quot;&gt;&lt;b&gt;Wake after sleep onset (WASO)&lt;/b&gt;:&lt;br&gt;The total number of minutes that a person is awake after having initially fallen asleep.&lt;br&gt;&lt;/font&gt;" style="whiteSpace=wrap;html=1;" parent="1" vertex="1">
          <mxGeometry x="396" y="360" width="194" height="80" as="geometry" />
        </mxCell>
        <mxCell id="nResc2J95Kc2uAZXSNH7-73" value="" style="edgeStyle=orthogonalEdgeStyle;rounded=1;orthogonalLoop=1;jettySize=auto;html=1;" parent="1" source="nResc2J95Kc2uAZXSNH7-58" target="nResc2J95Kc2uAZXSNH7-72" edge="1">
          <mxGeometry relative="1" as="geometry" />
        </mxCell>
        <mxCell id="nResc2J95Kc2uAZXSNH7-74" value="" style="edgeStyle=orthogonalEdgeStyle;rounded=1;orthogonalLoop=1;jettySize=auto;html=1;" parent="1" source="nResc2J95Kc2uAZXSNH7-71" target="nResc2J95Kc2uAZXSNH7-72" edge="1">
          <mxGeometry relative="1" as="geometry" />
        </mxCell>
        <mxCell id="nResc2J95Kc2uAZXSNH7-76" style="edgeStyle=orthogonalEdgeStyle;rounded=1;orthogonalLoop=1;jettySize=auto;html=1;exitX=0.5;exitY=0;exitDx=0;exitDy=0;dashed=1;dashPattern=8 8;" parent="1" source="nResc2J95Kc2uAZXSNH7-75" edge="1">
          <mxGeometry relative="1" as="geometry">
            <mxPoint x="190" y="330" as="targetPoint" />
          </mxGeometry>
        </mxCell>
        <mxCell id="nResc2J95Kc2uAZXSNH7-77" style="edgeStyle=orthogonalEdgeStyle;rounded=1;orthogonalLoop=1;jettySize=auto;html=1;exitX=0.5;exitY=0;exitDx=0;exitDy=0;dashed=1;dashPattern=8 8;" parent="1" source="nResc2J95Kc2uAZXSNH7-75" edge="1">
          <mxGeometry relative="1" as="geometry">
            <mxPoint x="270" y="330" as="targetPoint" />
          </mxGeometry>
        </mxCell>
        <mxCell id="nResc2J95Kc2uAZXSNH7-75" value="&lt;font face=&quot;Times New Roman&quot;&gt;&lt;b&gt;Sleep onset latency (SOL):&lt;/b&gt;&lt;br&gt;The time it takes a person to fall asleep.&lt;/font&gt;" style="rounded=0;whiteSpace=wrap;html=1;" parent="1" vertex="1">
          <mxGeometry x="140" y="368.5" width="180" height="63" as="geometry" />
        </mxCell>
        <mxCell id="nResc2J95Kc2uAZXSNH7-78" value="" style="line;strokeWidth=2;html=1;perimeter=backbonePerimeter;points=[];outlineConnect=0;strokeColor=#ff0000;dashed=1;" parent="1" vertex="1">
          <mxGeometry x="270" y="244" width="136" height="10" as="geometry" />
        </mxCell>
        <mxCell id="nResc2J95Kc2uAZXSNH7-79" value="" style="line;strokeWidth=2;html=1;perimeter=backbonePerimeter;points=[];outlineConnect=0;strokeColor=#ff0000;fillColor=#0d0c0c;dashed=1;" parent="1" vertex="1">
          <mxGeometry x="464" y="244" width="63" height="10" as="geometry" />
        </mxCell>
        <mxCell id="nResc2J95Kc2uAZXSNH7-80" value="" style="line;strokeWidth=2;html=1;perimeter=backbonePerimeter;points=[];outlineConnect=0;strokeColor=#ff0000;gradientColor=none;fillStyle=dashed;dashed=1;" parent="1" vertex="1">
          <mxGeometry x="550" y="244" width="210" height="10" as="geometry" />
        </mxCell>
        <mxCell id="nResc2J95Kc2uAZXSNH7-82" value="" style="line;strokeWidth=2;html=1;perimeter=backbonePerimeter;points=[];outlineConnect=0;strokeColor=#ff0000;gradientColor=none;fillStyle=dashed;dashed=1;" parent="1" vertex="1">
          <mxGeometry x="641" y="447" width="20" height="10" as="geometry" />
        </mxCell>
        <mxCell id="nResc2J95Kc2uAZXSNH7-83" value="&lt;font face=&quot;Times New Roman&quot;&gt;= Total sleep time (TST)&lt;/font&gt;" style="text;html=1;align=center;verticalAlign=middle;resizable=0;points=[];autosize=1;strokeColor=none;fillColor=none;" parent="1" vertex="1">
          <mxGeometry x="656" y="437" width="140" height="30" as="geometry" />
        </mxCell>
      </root>
    </mxGraphModel>
  </diagram>
</mxfile>
